<svg xmlns="http://www.w3.org/2000/svg" width="98" height="121" viewBox="0 0 98 121">
    <defs>
        <linearGradient id="a" x1=".184%" x2="134.163%" y1="2.371%" y2="66.341%">
            <stop offset="0%" stop-color="#00D29A" stop-opacity="0"/>
            <stop offset="100%" stop-color="#00D29A"/>
        </linearGradient>
        <linearGradient id="b" x1="50.019%" x2="49.739%" y1="64.491%" y2="-.887%">
            <stop offset="0%" stop-color="#00D29A" stop-opacity="0"/>
            <stop offset="100%" stop-color="#00D29A"/>
        </linearGradient>
    </defs>
    <g fill="none" fill-rule="nonzero">
        <path fill="#00D29A" d="M35.905 80.907a98.601 98.601 0 0 1 61.644-21.8H0l35.905 21.8zM45.97 50.01h32.135a.661.661 0 0 0 .668-.655V41.07a.661.661 0 0 0-.668-.656H57.333a.661.661 0 0 1-.667-.66v-9.278a.661.661 0 0 1 .667-.655h15.313a.667.667 0 0 0 .674-.655v-7.96a.667.667 0 0 0-.674-.656H57.333a.661.661 0 0 1-.667-.655v-8.472a.661.661 0 0 1 .667-.661h20.772a.661.661 0 0 0 .656-.637V1.924a.667.667 0 0 0-.668-.661H45.97a.667.667 0 0 0-.668.66v47.432a.661.661 0 0 0 .668.655zM6.547 46.836c3.734 2.615 8.808 3.998 14.664 3.998 5.411 0 10.275-1.443 13.702-4.065a13.756 13.756 0 0 0 5.483-11.297c0-7.172-4.208-11.651-12.944-13.69L17.393 19.48c-3.324-.716-5.014-2.405-5.014-4.942 0-3.271 2.91-5.411 7.407-5.411 4.81 0 7.161 2.32 8.34 4.593.117.222.35.36.6.355h10.131a.655.655 0 0 0 .632-.848 16.161 16.161 0 0 0-5.628-8.543c-3.547-2.79-8.417-4.27-14.159-4.27-5.357 0-10.179 1.522-13.575 4.282A13.979 13.979 0 0 0 .854 15.89c0 7.035 4.088 11.352 12.511 13.185l9.884 2.063c2.928.66 5.616 1.731 5.616 5.11 0 3.517-3.102 5.79-7.906 5.79-4.299 0-7.383-1.702-8.808-4.81a.667.667 0 0 0-.601-.379H.685a.667.667 0 0 0-.649.842 16.726 16.726 0 0 0 6.511 9.145zM96.972 1.263H86.697a.661.661 0 0 0-.667.66v47.432a.661.661 0 0 0 .667.655h10.275a.661.661 0 0 0 .667-.655V1.924a.667.667 0 0 0-.667-.661z"/>
        <path fill="url(#a)" d="M97.958 59.107h-.451c-12.421-.223-25.576 2.627-37.126 7.347a99.016 99.016 0 0 0-24.476 14.43l62.053 37.69V59.107z"/>
        <path fill="url(#b)" d="M0 59.107v96.238h.036c0-30.001 13.967-56.786 35.857-74.438L0 59.107z"/>
    </g>
</svg>
